<svg xmlns="http://www.w3.org/2000/svg" viewBox="0 0 1024 1024" role="img" aria-labelledby="title">
  <title>ChuQin CQ Logo</title>
  <rect x="112" y="112" width="800" height="800" rx="150" fill="#FFFFFF" stroke="#E1E1DC" stroke-width="12"/>
  <g fill="#171717">
    <path d="M526 300L444 378H358C295 378 245 431 245 502C245 574 296 627 362 627H659L724 703H352C247 703 166 615 166 502C166 389 247 300 352 300H526Z"/>
    <path d="M430 504C430 389 521 299 644 299C765 299 857 389 857 504C857 549 843 591 819 625L766 562C774 544 778 525 778 504C778 431 721 374 644 374C567 374 509 431 509 504C509 544 527 579 562 603H459C440 574 430 541 430 504Z"/>
    <path d="M606 524H707L858 703H755L606 524Z"/>
  </g>
</svg>
